<?xml version="1.0" encoding="UTF-8"?>
<svg version="1.1" xmlns="http://www.w3.org/2000/svg" width="200" height="200">
<path d="M0 0 C1.54125607 -0.0020266 3.08251121 -0.00494289 4.62376404 -0.00869751 C7.82487281 -0.0130814 11.02572772 -0.00681053 14.22680664 0.00732422 C18.32574807 0.02454537 22.42410562 0.01446949 26.52302647 -0.00339317 C29.69291096 -0.01422715 32.86265645 -0.01078875 36.03254509 -0.0030098 C37.54479988 -0.00101345 39.05706742 -0.00344716 40.56930733 -0.01044846 C42.67488384 -0.01807132 44.7795045 -0.00645455 46.88500977 0.01025391 C48.67818382 0.01383408 48.67818382 0.01383408 50.50758362 0.01748657 C53.81979968 0.43105183 55.21466184 1.06243745 57.55859375 3.3984375 C58.06030273 5.52734375 58.06030273 5.52734375 58.0546875 7.9609375 C58.05533203 8.84007812 58.05597656 9.71921875 58.05664062 10.625 C58.03666016 11.54023437 58.01667969 12.45546875 57.99609375 13.3984375 C58.00318359 14.31367187 58.01027344 15.22890625 58.01757812 16.171875 C57.95245709 23.00457416 57.95245709 23.00457416 54.55859375 26.3984375 C47.62859375 26.3984375 40.69859375 26.3984375 33.55859375 26.3984375 C33.55859375 55.1084375 33.55859375 83.8184375 33.55859375 113.3984375 C40.48859375 113.3984375 47.41859375 113.3984375 54.55859375 113.3984375 C57.9394236 117.90621063 57.9394236 117.90621063 57.95703125 121.83984375 C57.96089844 122.67064453 57.96476562 123.50144531 57.96875 124.35742188 C57.95714844 125.21658203 57.94554687 126.07574219 57.93359375 126.9609375 C57.94519531 127.82396484 57.95679688 128.68699219 57.96875 129.57617188 C57.96488281 130.40568359 57.96101563 131.23519531 57.95703125 132.08984375 C57.95364746 132.84467041 57.95026367 133.59949707 57.94677734 134.37719727 C57.43098052 137.06290916 56.76406631 137.7742193 54.55859375 139.3984375 C51.54518127 139.77938843 51.54518127 139.77938843 47.79907227 139.78662109 C47.11565262 139.79187805 46.43223297 139.79713501 45.72810364 139.80255127 C43.46433747 139.81577131 41.20127362 139.80699789 38.9375 139.796875 C37.3562761 139.79889727 35.77505311 139.80180998 34.1938324 139.80557251 C30.87237711 139.81000029 27.55116352 139.80355816 24.22973633 139.78955078 C20.00350353 139.77258404 15.77784761 139.78221669 11.5516367 139.80026817 C8.28018495 139.81120183 5.00886573 139.80761408 1.73740959 139.7998848 C0.18152738 139.79790255 -1.37436741 139.8002715 -2.93023491 139.80732346 C-14.28793052 139.84745411 -25.39050366 139.26146401 -35.44140625 133.3984375 C-35.44140625 132.7384375 -35.44140625 132.0784375 -35.44140625 131.3984375 C-36.03953125 131.14707031 -36.63765625 130.89570313 -37.25390625 130.63671875 C-44.0977577 126.76260998 -46.54207704 117.96457578 -48.6796875 110.90234375 C-50.54596754 102.31745556 -50.60058079 93.63515987 -50.609375 84.8828125 C-50.6127034 83.70938293 -50.6160318 82.53595337 -50.61946106 81.32696533 C-50.62449869 78.85616444 -50.62687037 76.38535681 -50.62670898 73.91455078 C-50.62889169 70.17338619 -50.64707142 66.43251868 -50.66601562 62.69140625 C-50.76332431 21.9944691 -50.76332431 21.9944691 -37.44140625 8.3984375 C-27.34445491 -0.49755487 -12.70077934 -0.05962966 0 0 Z M-20.44140625 29.3984375 C-25.42914568 36.96604215 -24.60085882 46.08270436 -24.609375 54.796875 C-24.6127034 55.98640778 -24.6160318 57.17594055 -24.61946106 58.40151978 C-24.62451088 60.91123062 -24.62686999 63.42094814 -24.62670898 65.93066406 C-24.62889477 69.75336857 -24.64706967 73.575784 -24.66601562 77.3984375 C-24.66895015 79.84374902 -24.67093455 82.2890619 -24.671875 84.734375 C-24.67906052 85.86902191 -24.68624603 87.00366882 -24.69364929 88.17269897 C-24.76408772 99.69438365 -24.76408772 99.69438365 -20.06640625 109.8984375 C-11.88905858 117.68638766 3.15039338 113.3984375 12.55859375 113.3984375 C12.55859375 84.6884375 12.55859375 55.9784375 12.55859375 26.3984375 C-11.53451788 24.38597632 -11.53451788 24.38597632 -20.44140625 29.3984375 Z " fill="#3EB0BF" transform="translate(93.44140625,24.6015625)"/>
<path d="M0 0 C1.61310059 0.14514038 1.61310059 0.14514038 3.25878906 0.29321289 C4.07573242 0.37047607 4.89267578 0.44773926 5.734375 0.52734375 C5.75749755 11.85346005 5.77528964 23.17957078 5.78618717 34.50570583 C5.79141619 39.76431039 5.79851418 45.02289885 5.80981445 50.28149414 C5.82064266 55.35187502 5.82665169 60.42224037 5.82925224 65.49263191 C5.83110661 67.43161323 5.83472745 69.37059366 5.84010506 71.30956841 C5.8473146 74.01556135 5.84836598 76.72148931 5.84790039 79.42749023 C5.85149567 80.23740921 5.85509094 81.04732819 5.85879517 81.88179016 C5.84842716 87.41329159 5.84842716 87.41329159 4.734375 88.52734375 C1.87169933 88.60059543 -0.966344 88.6197258 -3.828125 88.58984375 C-4.63443359 88.58533203 -5.44074219 88.58082031 -6.27148438 88.57617188 C-8.26956256 88.56434893 -10.26760283 88.54641289 -12.265625 88.52734375 C-12.25402344 87.53992188 -12.24242188 86.5525 -12.23046875 85.53515625 C-12.22144531 84.25382812 -12.21242188 82.9725 -12.203125 81.65234375 C-12.19152344 80.37617188 -12.17992188 79.1 -12.16796875 77.78515625 C-12.03385931 74.64069723 -12.03385931 74.64069723 -13.265625 72.52734375 C-13.42007977 70.76663289 -13.51557699 69.00059776 -13.58203125 67.234375 C-13.64511475 65.59408325 -13.64511475 65.59408325 -13.70947266 63.9206543 C-13.74862793 62.73898682 -13.7877832 61.55731934 -13.828125 60.33984375 C-13.8698584 59.12401611 -13.9115918 57.90818848 -13.95458984 56.65551758 C-14.55373879 37.89726466 -14.30522232 19.26497952 -13.265625 0.52734375 C-8.67030801 -0.41260745 -4.68304951 -0.43066191 0 0 Z " fill="#3ECAAF" transform="translate(120.265625,49.47265625)"/>
<path d="M0 0 C0.33 0 0.66 0 1 0 C1.08710289 3.10398978 1.14042309 6.20766548 1.1875 9.3125 C1.21263672 10.19357422 1.23777344 11.07464844 1.26367188 11.98242188 C1.27333984 12.82998047 1.28300781 13.67753906 1.29296875 14.55078125 C1.3086792 15.33106689 1.32438965 16.11135254 1.34057617 16.9152832 C0.89051411 19.67017921 0.25109981 20.34947171 -2 22 C-5.01341248 22.38095093 -5.01341248 22.38095093 -8.75952148 22.38818359 C-9.44294113 22.39344055 -10.12636078 22.39869751 -10.83049011 22.40411377 C-13.09425628 22.41733381 -15.35732013 22.40856039 -17.62109375 22.3984375 C-19.20231765 22.40045977 -20.78354064 22.40337248 -22.36476135 22.40713501 C-25.68621664 22.41156279 -29.00743023 22.40512066 -32.32885742 22.39111328 C-36.55509022 22.37414654 -40.78074614 22.38377919 -45.00695705 22.40183067 C-48.2784088 22.41276433 -51.54972802 22.40917658 -54.82118416 22.4014473 C-56.37706637 22.39946505 -57.93296116 22.401834 -59.48882866 22.40888596 C-70.84652427 22.44901661 -81.94909741 21.86302651 -92 16 C-92 15.34 -92 14.68 -92 14 C-92.59296875 13.7628125 -93.1859375 13.525625 -93.796875 13.28125 C-96.48100509 11.72026654 -97.57842113 10.10023379 -99.25 7.5 C-100.03117187 6.30890625 -100.03117187 6.30890625 -100.828125 5.09375 C-102 3 -102 3 -102 1 C-101.34 1 -100.68 1 -100 1 C-98.95703125 2.5390625 -98.95703125 2.5390625 -97.8125 4.625 C-93.42939885 11.85775583 -87.1768384 16.70579079 -79 19 C-73.26836414 19.55075144 -67.57297113 19.49136366 -61.8203125 19.42578125 C-60.15884799 19.42085022 -58.4973779 19.41755599 -56.83590698 19.41581726 C-53.37121549 19.40821256 -49.90694236 19.3877531 -46.44238281 19.35668945 C-42.00036502 19.31693094 -37.55861729 19.29904636 -33.11644173 19.28938007 C-28.87186217 19.27941887 -24.62734828 19.25954692 -20.3828125 19.23828125 C-19.57397739 19.2348855 -18.76514229 19.23148975 -17.93179703 19.2279911 C-15.6486246 19.21642666 -13.36562319 19.1979117 -11.08251953 19.17700195 C-9.13468063 19.16223564 -9.13468063 19.16223564 -7.14749146 19.14717102 C-3.97173475 19.14145177 -3.97173475 19.14145177 -1 18 C-0.67 12.06 -0.34 6.12 0 0 Z " fill="#225599" transform="translate(150,142)"/>
<path d="M0 0 C1.07213176 3.21639528 0.95615933 3.8083381 0.07910156 6.90039062 C-1.33453064 12.7967132 -1.28728814 18.55587583 -1.265625 24.59375 C-1.26753845 25.78045288 -1.2694519 26.96715576 -1.27142334 28.18981934 C-1.27277845 30.68758355 -1.26912931 33.18535497 -1.26074219 35.68310547 C-1.25003344 39.48811794 -1.26066081 43.29265832 -1.2734375 47.09765625 C-1.27211579 49.5338552 -1.26955315 51.97005386 -1.265625 54.40625 C-1.26967346 55.5346228 -1.27372192 56.66299561 -1.27789307 57.82556152 C-1.22908088 66.12113828 -0.9465966 74.0297957 4 81 C2.1078186 80.727005 2.1078186 80.727005 0 80 C-4.48308648 73.30252444 -3.43693442 63.77992376 -3.3984375 56.11328125 C-3.40046267 54.6832006 -3.40337779 53.25312097 -3.40713501 51.82304382 C-3.41153329 48.84180767 -3.40520582 45.86084302 -3.39111328 42.87963867 C-3.37397564 39.06998134 -3.38390676 35.2609561 -3.40183067 31.4513216 C-3.41269665 28.50438209 -3.40921016 25.55759132 -3.4014473 22.6106472 C-3.39945547 21.20610668 -3.40186858 19.80155237 -3.40888596 18.39702797 C-3.41655134 16.4330638 -3.40278584 14.4690518 -3.38818359 12.50512695 C-3.38579681 11.39087845 -3.38341003 10.27662994 -3.38095093 9.12861633 C-2.94640487 5.55984198 -1.76760099 3.10634207 0 0 Z " fill="#143458" transform="translate(71,55)"/>
<path d="M0 0 C0 7.59 0 15.18 0 23 C-0.33 23 -0.66 23 -1 23 C-1 16.07 -1 9.14 -1 2 C-5.39604543 2.14084126 -9.79176686 2.28746734 -14.1875 2.4375 C-16.05631836 2.49647461 -16.05631836 2.49647461 -17.96289062 2.55664062 C-19.16494141 2.59853516 -20.36699219 2.64042969 -21.60546875 2.68359375 C-22.71043701 2.72025146 -23.81540527 2.75690918 -24.95385742 2.79467773 C-27.72592972 2.98152656 -30.29542873 3.38162366 -33 4 C-26.71898818 -3.20933746 -8.51301813 -2.83767271 0 0 Z " fill="#32906A" transform="translate(107,49)"/>
<path d="M0 0 C0.33 0 0.66 0 1 0 C1.02505615 0.78125244 1.0501123 1.56250488 1.07592773 2.36743164 C1.19250203 5.93259617 1.31494865 9.49753613 1.4375 13.0625 C1.47681641 14.29162109 1.51613281 15.52074219 1.55664062 16.78710938 C1.76051767 22.60544652 2.07331833 28.25457363 3 34 C3.10751986 36.6793948 3.0470821 39.31632049 3 42 C1.515 42.495 1.515 42.495 0 43 C0 28.81 0 14.62 0 0 Z " fill="#2F82DE" transform="translate(106,95)"/>
<path d="M0 0 C0.66 0 1.32 0 2 0 C3.04296875 1.5390625 3.04296875 1.5390625 4.1875 3.625 C9.51351859 12.35289751 16.58742183 15.5069907 26 19 C23.13421241 20.16161779 21.98369837 19.9946154 18.984375 19.00390625 C17.91703125 18.52824219 16.8496875 18.05257812 15.75 17.5625 C14.67234375 17.08941406 13.5946875 16.61632812 12.484375 16.12890625 C11.66453125 15.75636719 10.8446875 15.38382813 10 15 C10 14.34 10 13.68 10 13 C9.40703125 12.7628125 8.8140625 12.525625 8.203125 12.28125 C5.51899491 10.72026654 4.42157887 9.10023379 2.75 6.5 C1.96882813 5.30890625 1.96882813 5.30890625 1.171875 4.09375 C0 2 0 2 0 0 Z " fill="#313D96" transform="translate(48,143)"/>
<path d="M0 0 C-1.7325 0.7425 -1.7325 0.7425 -3.5 1.5 C-8.62425135 4.02552388 -12.18697604 7.82189928 -16 12 C-16 7.92363233 -14.79976365 6.93975184 -12 4 C-4.6337837 -1.67560928 -4.6337837 -1.67560928 0 0 Z " fill="#3CCBA3" transform="translate(68,29)"/>
<path d="M0 0 C1.53600055 2.81068981 2.36531037 5.29318177 2.9375 8.4375 C3.6992329 12.13038111 4.79101928 14.88734535 7 18 C5.109375 17.75390625 5.109375 17.75390625 3 17 C-0.071913 11.76170059 -0.32232069 5.9092127 0 0 Z " fill="#1F4583" transform="translate(68,118)"/>
<path d="M0 0 C0.66 0 1.32 0 2 0 C3.18359375 1.609375 3.18359375 1.609375 4.4375 3.75 C6.16182294 6.62727259 7.91413516 9.36522337 10 12 C7.16582109 11.64880827 6.18351911 11.21508776 4.296875 9.00390625 C3.78640625 8.19824219 3.2759375 7.39257812 2.75 6.5625 C1.96882813 5.35787109 1.96882813 5.35787109 1.171875 4.12890625 C0 2 0 2 0 0 Z " fill="#4648C4" transform="translate(48,143)"/>
</svg>
