<?xml version="1.0" encoding="UTF-8"?>
<svg version="1.1" xmlns="http://www.w3.org/2000/svg" width="428" height="154">
<path d="M0 0 C0.64633392 -0.00817749 1.29266785 -0.01635498 1.95858765 -0.02478027 C4.07711908 -0.04940284 6.19558502 -0.06608248 8.31420898 -0.08056641 C9.04164747 -0.08589008 9.76908596 -0.09121376 10.51856804 -0.09669876 C14.3627911 -0.12331873 18.20698281 -0.14273615 22.05126953 -0.15722656 C25.22603934 -0.17060294 28.40017205 -0.19853776 31.57470703 -0.23925781 C35.42018169 -0.28856646 39.26507593 -0.31334304 43.1108532 -0.32045364 C44.57210587 -0.32716037 46.03334584 -0.34236772 47.49441719 -0.36634445 C49.53863318 -0.39800126 51.58060283 -0.39803536 53.625 -0.390625 C54.78604752 -0.39871185 55.94709503 -0.40679871 57.14332581 -0.41513062 C61.22517229 0.38428574 62.71127287 1.95909251 65.24780273 5.19287109 C65.671874 8.11392141 65.82025014 10.36855505 65.68530273 13.25537109 C65.67660156 14.31594727 65.67660156 14.31594727 65.66772461 15.39794922 C65.58107705 19.08913538 65.40083434 22.12039538 63.24780273 25.19287109 C56.38404931 28.62474781 47.92171236 26.19287109 40.24780273 26.19287109 C40.57780273 54.90287109 40.90780273 83.61287109 41.24780273 113.19287109 C47.18780273 113.19287109 53.12780273 113.19287109 59.24780273 113.19287109 C64.24780273 116.19287109 64.24780273 116.19287109 65.24780273 119.19287109 C65.3684573 121.29450524 65.42316283 123.40031142 65.43530273 125.50537109 C65.44948242 126.61525391 65.46366211 127.72513672 65.47827148 128.86865234 C65.23887366 132.32166168 64.58859545 135.00790034 63.24780273 138.19287109 C60.35513306 139.63920593 57.83386119 139.33618428 54.60180664 139.35400391 C53.91853302 139.35896881 53.2352594 139.36393372 52.53128052 139.36904907 C50.26229855 139.3836932 47.99338678 139.39048078 45.72436523 139.39599609 C44.14171345 139.40175116 42.55906168 139.40750885 40.97640991 139.41326904 C37.6490649 139.42378914 34.32174408 139.4296234 30.99438477 139.43310547 C26.76033271 139.4385547 22.52660805 139.46250082 18.29265785 139.49107742 C15.01694867 139.50985069 11.74131549 139.51491741 8.4655571 139.51644135 C6.90686655 139.51944171 5.34817649 139.52738019 3.78953934 139.54062653 C-8.95754632 139.6411149 -21.78505391 139.22874095 -31.75219727 130.19287109 C-31.75219727 129.53287109 -31.75219727 128.87287109 -31.75219727 128.19287109 C-32.74219727 127.86287109 -33.73219727 127.53287109 -34.75219727 127.19287109 C-43.17085882 114.19000198 -43.90232265 99.43608711 -43.92016602 84.38427734 C-43.92349442 83.37807846 -43.92682281 82.37187958 -43.93025208 81.33518982 C-43.93528542 79.21491956 -43.93766152 77.09464147 -43.9375 74.97436523 C-43.93967014 71.79510776 -43.95781974 68.61620728 -43.97680664 65.43701172 C-44.00415334 55.77487222 -43.86093373 46.19395866 -42.87719727 36.57568359 C-42.80103683 35.82013687 -42.7248764 35.06459015 -42.64640808 34.28614807 C-41.24628577 22.24379561 -36.1592414 13.58061275 -27.00219727 5.88037109 C-18.7305613 1.58548319 -9.23920806 0.10226857 0 0 Z M-12.75219727 29.19287109 C-17.01612432 33.45679815 -16.87729128 38.68103986 -16.89746094 44.43261719 C-16.90384079 45.67095306 -16.91022064 46.90928894 -16.91679382 48.18515015 C-16.91832276 49.52886923 -16.91943658 50.87258884 -16.92016602 52.21630859 C-16.92338262 53.60486892 -16.92674699 54.9934289 -16.93025208 56.38198853 C-16.9362288 59.28868393 -16.93809347 62.19534967 -16.9375 65.10205078 C-16.93739846 68.81293696 -16.95104899 72.52363147 -16.96827221 76.23447227 C-16.97943144 79.10164247 -16.98141801 81.96876689 -16.98089027 84.83595657 C-16.98206454 86.20339239 -16.98645503 87.57082961 -16.99422264 88.93824387 C-17.46668457 100.48449118 -17.46668457 100.48449118 -12.75219727 110.56787109 C-3.44021301 118.1338583 3.10140064 113.61621388 19.24780273 114.19287109 C19.24780273 85.15287109 19.24780273 56.11287109 19.24780273 26.19287109 C-3.19172182 24.55154068 -3.19172182 24.55154068 -12.75219727 29.19287109 Z " fill="#3FB2C5" transform="translate(56.752197265625,6.80712890625)"/>
<path d="M0 0 C6.6 0 13.2 0 20 0 C20.02284161 8.37303078 20.04107988 16.74603622 20.05181217 25.11909008 C20.05697021 29.00949982 20.06393431 32.89988665 20.07543945 36.7902832 C20.12473639 53.8946024 20.0180666 70.91732338 19 88 C13.39 88 7.78 88 2 88 C2.02320312 85.68484375 2.04640625 83.3696875 2.0703125 80.984375 C2.08598414 78.70052639 2.09808589 76.41668414 2.10986328 74.1328125 C2.11981813 72.56572719 2.1333869 70.99865993 2.15087891 69.43164062 C2.32369559 58.7853171 2.32369559 58.7853171 1 48.25 C-0.78435689 39.0511415 -0.2082362 29.57873659 -0.125 20.25 C-0.11494876 18.28125456 -0.10582671 16.31250414 -0.09765625 14.34375 C-0.07753219 9.56227427 -0.03835429 4.78150162 0 0 Z " fill="#3FCBAE" transform="translate(76,32)"/>
<path d="M0 0 C1.258125 -0.01675781 2.51625 -0.03351562 3.8125 -0.05078125 C4.864375 0.06910156 5.91625 0.18898437 7 0.3125 C9.48270523 4.03655785 9.28869756 6.91427023 9.2746582 11.22460938 C9.2823246 12.43235771 9.2823246 12.43235771 9.29014587 13.664505 C9.30405689 16.3284954 9.30308417 18.99222758 9.30078125 21.65625 C9.30466698 23.50565691 9.30900139 25.35506292 9.31376648 27.20446777 C9.32123166 31.08149102 9.32093498 34.9584232 9.31567383 38.83544922 C9.30987478 43.80910187 9.32681922 48.78238267 9.3500185 53.75597382 C9.36473319 57.57519722 9.36563071 61.39433055 9.36250877 65.21357727 C9.363023 67.04764035 9.36827958 68.88170835 9.37832069 70.71574402 C9.39062587 73.2775406 9.38392973 75.83860618 9.37231445 78.40039062 C9.38378006 79.54130913 9.38378006 79.54130913 9.39547729 80.70527649 C9.34419723 85.80939184 9.34419723 85.80939184 7.6525116 88.28210449 C5.12028604 89.86103068 2.95047773 89.70919469 0 89.6875 C-1.051875 89.69523437 -2.10375 89.70296875 -3.1875 89.7109375 C-6 89.3125 -6 89.3125 -7.6525116 88.28883362 C-9.76694663 85.1876351 -9.40821962 81.91687574 -9.37231445 78.29272461 C-9.37596512 77.47619919 -9.37961578 76.65967377 -9.38337708 75.81840515 C-9.39148919 73.11700706 -9.37786832 70.4162075 -9.36328125 67.71484375 C-9.36276277 65.84062195 -9.36327999 63.9663996 -9.36479187 62.09217834 C-9.36470212 58.16382736 -9.35426614 54.23568149 -9.33618164 50.30737305 C-9.31347876 45.26417666 -9.31295289 40.22127967 -9.31969929 35.17804623 C-9.32303541 31.30824609 -9.31641619 27.43851462 -9.30657005 23.56872749 C-9.30271277 21.70872926 -9.30157202 19.8487234 -9.3031559 17.98872185 C-9.30352543 15.39329254 -9.29093852 12.79825195 -9.2746582 10.20288086 C-9.27713562 9.42932251 -9.27961304 8.65576416 -9.28216553 7.85876465 C-9.20717359 0.39426905 -7.08136991 0.02176651 0 0 Z " fill="#3FB3FD" transform="translate(162,36.6875)"/>
<path d="M0 0 C3.86909216 2.22170526 5.21670989 4.95551547 7.0625 8.9375 C8.78704063 12.62902331 10.55438201 15.75610907 13 19 C13 19.66 13 20.32 13 21 C13.66 21 14.32 21 15 21 C15 14.07 15 7.14 15 0 C17.31 0 19.62 0 22 0 C22.86214505 8.13069105 23.09687474 16.08874357 22.75 24.25 C22.71048218 25.50067261 22.71048218 25.50067261 22.67016602 26.77661133 C22.546875 29.140625 22.546875 29.140625 22 33 C18.50875983 35.32749345 17.10777749 35.50299316 13 35 C9.55491043 32.15376389 7.83187338 29.06846825 5.9375 25.0625 C4.10071926 21.20867092 2.20823778 17.68039629 0 14 C-0.33 20.6 -0.66 27.2 -1 34 C-4.465 34.495 -4.465 34.495 -8 35 C-9.91387473 33.08612527 -9.18703079 29.58009062 -9.203125 26.97265625 C-9.20882507 26.26854111 -9.21452515 25.56442596 -9.22039795 24.838974 C-9.22985963 23.34684762 -9.23638656 21.85470024 -9.24023438 20.36254883 C-9.24994559 18.0753145 -9.28095825 15.78897651 -9.3125 13.50195312 C-9.31902925 12.05469286 -9.32428003 10.60742614 -9.328125 9.16015625 C-9.3404718 8.47365494 -9.3528186 7.78715363 -9.36553955 7.07984924 C-9.35644531 5.14868164 -9.35644531 5.14868164 -9 2 C-5.51131349 -0.32579101 -4.10281481 -0.41865457 0 0 Z " fill="#35B5FF" transform="translate(266,42)"/>
<path d="M0 0 C0.89009766 -0.01998047 1.78019531 -0.03996094 2.69726562 -0.06054688 C8.27815968 -0.05640981 11.94201165 0.43812692 16.1875 4.4375 C17.73546169 8.48601519 17.37097557 13.00636042 17.375 17.3125 C17.38724609 17.99441406 17.39949219 18.67632812 17.41210938 19.37890625 C17.42538025 24.02371202 17.11595486 28.1367815 15.1875 32.4375 C9.94022241 35.73386669 5.01848211 35.90221941 -1.0625 35.8125 C-2.26519531 35.82990234 -2.26519531 35.82990234 -3.4921875 35.84765625 C-4.26304687 35.84378906 -5.03390625 35.83992188 -5.828125 35.8359375 C-6.52196289 35.83255371 -7.21580078 35.82916992 -7.93066406 35.82568359 C-10.51586444 35.29241055 -11.32820143 34.62844511 -12.8125 32.4375 C-13.20068359 29.48242188 -13.20068359 29.48242188 -13.2109375 25.90625 C-13.21480469 24.62105469 -13.21867188 23.33585937 -13.22265625 22.01171875 C-13.21637207 21.34317871 -13.21008789 20.67463867 -13.20361328 19.98583984 C-13.18755354 17.9443067 -13.20346671 15.90475292 -13.22265625 13.86328125 C-13.21878906 12.57808594 -13.21492187 11.29289062 -13.2109375 9.96875 C-13.20755371 8.78861328 -13.20416992 7.60847656 -13.20068359 6.39257812 C-12.8125 3.4375 -12.8125 3.4375 -11.56616211 1.55639648 C-8.09325205 -0.65943907 -3.99532321 -0.03141426 0 0 Z M-4.8125 7.4375 C-4.84138146 10.74998187 -4.85925799 14.06243167 -4.875 17.375 C-4.88337891 18.32052734 -4.89175781 19.26605469 -4.90039062 20.24023438 C-4.90361328 21.13935547 -4.90683594 22.03847656 -4.91015625 22.96484375 C-4.91539307 23.79749756 -4.92062988 24.63015137 -4.92602539 25.48803711 C-5.02893292 27.44266798 -5.02893292 27.44266798 -3.8125 28.4375 C-2.18997508 28.53636353 -0.56302727 28.56721167 1.0625 28.5625 C1.94679687 28.56507812 2.83109375 28.56765625 3.7421875 28.5703125 C6.32656291 28.53798585 6.32656291 28.53798585 9.1875 27.4375 C10.76727708 24.27794583 10.37197084 20.90286183 10.375 17.4375 C10.38724609 16.70015625 10.39949219 15.9628125 10.41210938 15.203125 C10.41737395 13.27979942 10.30953447 11.35695737 10.1875 9.4375 C8.29903817 7.10883771 8.29903817 7.10883771 5.1484375 7.2421875 C3.37339844 7.27699219 3.37339844 7.27699219 1.5625 7.3125 C-0.22027344 7.33957031 -0.22027344 7.33957031 -2.0390625 7.3671875 C-3.41191406 7.40199219 -3.41191406 7.40199219 -4.8125 7.4375 Z " fill="#38B6FF" transform="translate(197.8125,41.5625)"/>
<path d="M0 0 C1.28293945 -0.04350586 1.28293945 -0.04350586 2.59179688 -0.08789062 C6.81139332 -0.13038075 9.07274817 -0.07024023 12.73046875 2.20703125 C16.89729629 6.68990559 15.98417052 11.78233311 16.0625 17.625 C16.09988281 18.67107422 16.13726562 19.71714844 16.17578125 20.79492188 C16.26440842 28.53010414 16.26440842 28.53010414 13.3515625 32.48046875 C7.43961725 36.54601467 0.60415708 35.75647461 -6.3125 35.3125 C-10.56003132 34.31267526 -12.83160725 33.03383913 -15.3125 29.3125 C-15.77491172 25.53626714 -15.68282982 21.73902457 -15.6875 17.9375 C-15.71199219 16.8959375 -15.73648438 15.854375 -15.76171875 14.78125 C-15.79114716 7.11024526 -15.79114716 7.11024526 -13.4140625 3.1484375 C-9.23753264 -0.50020383 -5.32388523 0.05937418 0 0 Z M-8.3125 9.3125 C-8.53802238 12.00412425 -8.6368329 14.55919744 -8.625 17.25 C-8.64111328 17.97896484 -8.65722656 18.70792969 -8.67382812 19.45898438 C-8.67653127 22.40811808 -8.66497078 24.71880337 -7.13671875 27.29296875 C-4.61457283 28.70256208 -2.69032051 28.71070823 0.1875 28.6875 C1.1465625 28.69523437 2.105625 28.70296875 3.09375 28.7109375 C5.6499776 28.47298973 5.6499776 28.47298973 7.51171875 27.29296875 C9.39198004 24.12588413 9.07894219 20.82134449 9 17.25 C9.00322266 16.51716797 9.00644531 15.78433594 9.00976562 15.02929688 C9.10208604 10.70462339 9.10208604 10.70462339 6.6875 7.3125 C3.62930773 6.99222695 3.62930773 6.99222695 0.1875 7.0625 C-0.9778125 7.05734375 -2.143125 7.0521875 -3.34375 7.046875 C-6.43076065 7.00324227 -6.43076065 7.00324227 -8.3125 9.3125 Z " fill="#2BB1FF" transform="translate(234.3125,89.6875)"/>
<path d="M0 0 C1.05896484 -0.01224609 2.11792969 -0.02449219 3.20898438 -0.03710938 C4.22927734 -0.03904297 5.24957031 -0.04097656 6.30078125 -0.04296875 C7.23704346 -0.04707764 8.17330566 -0.05118652 9.13793945 -0.05541992 C11.84151953 0.20217485 13.44609998 0.66395677 15.6875 2.1875 C16.66521193 5.1206358 16.82169011 7.06928994 16.8125 10.125 C16.81636719 11.40697266 16.81636719 11.40697266 16.8203125 12.71484375 C16.6950683 15.04659607 16.46337376 16.98675116 15.6875 19.1875 C13.625 20.4375 13.625 20.4375 11.6875 21.1875 C12.5846875 22.5178125 12.5846875 22.5178125 13.5 23.875 C18.6875 31.73035714 18.6875 31.73035714 18.6875 34.1875 C15.68199319 35.69025341 14.01751693 35.77515005 10.6875 35.1875 C7.88049729 31.95709465 6.1156102 28.10209906 4.3125 24.25 C2.72540067 21.78733706 2.72540067 21.78733706 -1 21.375 C-2.6396875 21.2821875 -2.6396875 21.2821875 -4.3125 21.1875 C-4.30089844 22.11433594 -4.28929687 23.04117188 -4.27734375 23.99609375 C-4.26832031 25.19363281 -4.25929688 26.39117187 -4.25 27.625 C-4.23839844 28.81996094 -4.22679687 30.01492187 -4.21484375 31.24609375 C-4.3125 34.1875 -4.3125 34.1875 -5.3125 35.1875 C-8.3125 35.3125 -8.3125 35.3125 -11.3125 35.1875 C-12.86856751 33.63143249 -12.44220769 32.12792629 -12.4453125 29.96875 C-12.44660156 29.11925781 -12.44789063 28.26976563 -12.44921875 27.39453125 C-12.44535156 26.50121094 -12.44148438 25.60789062 -12.4375 24.6875 C-12.44136719 23.79417969 -12.44523437 22.90085937 -12.44921875 21.98046875 C-12.44792969 21.13097656 -12.44664062 20.28148438 -12.4453125 19.40625 C-12.44418457 18.62185547 -12.44305664 17.83746094 -12.44189453 17.02929688 C-12.3125 15.1875 -12.3125 15.1875 -11.3125 14.1875 C-9.82611008 14.03094973 -8.33300873 13.93683057 -6.83984375 13.87109375 C-5.94072266 13.82919922 -5.04160156 13.78730469 -4.11523438 13.74414062 C-3.16970703 13.70482422 -2.22417969 13.66550781 -1.25 13.625 C-0.30060547 13.58181641 0.64878906 13.53863281 1.62695312 13.49414062 C3.98031353 13.38770724 6.33378354 13.28568992 8.6875 13.1875 C8.6875 11.5375 8.6875 9.8875 8.6875 8.1875 C8.08687744 8.16244385 7.48625488 8.1373877 6.86743164 8.11157227 C4.16138563 7.9959472 1.45571717 7.87307064 -1.25 7.75 C-2.19552734 7.71068359 -3.14105469 7.67136719 -4.11523438 7.63085938 C-5.01435547 7.58896484 -5.91347656 7.54707031 -6.83984375 7.50390625 C-7.67249756 7.46724854 -8.50515137 7.43059082 -9.36303711 7.39282227 C-11.3125 7.1875 -11.3125 7.1875 -12.3125 6.1875 C-12.4375 3.6875 -12.4375 3.6875 -12.3125 1.1875 C-9.85040288 -1.27459712 -3.30819976 0.00199169 0 0 Z " fill="#4CBDFF" transform="translate(269.3125,89.8125)"/>
<path d="M0 0 C1.40668945 0.00966797 1.40668945 0.00966797 2.84179688 0.01953125 C4.30649414 0.04466797 4.30649414 0.04466797 5.80078125 0.0703125 C6.78884766 0.07933594 7.77691406 0.08835937 8.79492188 0.09765625 C11.2346189 0.1212282 13.67382822 0.15413228 16.11328125 0.1953125 C16.49461424 2.1867181 16.82653707 4.18810327 17.11328125 6.1953125 C15.59907124 7.70952251 14.18855357 7.40841106 12.078125 7.51171875 C10.86479492 7.57456055 10.86479492 7.57456055 9.62695312 7.63867188 C8.35174805 7.69764648 8.35174805 7.69764648 7.05078125 7.7578125 C6.19677734 7.80099609 5.34277344 7.84417969 4.46289062 7.88867188 C2.34656088 7.99507952 0.22994312 8.09572981 -1.88671875 8.1953125 C-3.14105333 11.95831624 -2.99367297 15.46742159 -2.94921875 19.3828125 C-2.94470703 20.13240234 -2.94019531 20.88199219 -2.93554688 21.65429688 C-2.92378229 23.50133633 -2.9058474 25.34833463 -2.88671875 27.1953125 C-1.59894531 27.18371094 -0.31117188 27.17210938 1.015625 27.16015625 C2.69400897 27.1507798 4.37239451 27.14167945 6.05078125 27.1328125 C7.32598633 27.12024414 7.32598633 27.12024414 8.62695312 27.10742188 C9.43583984 27.10419922 10.24472656 27.10097656 11.078125 27.09765625 C11.82698975 27.09241943 12.57585449 27.08718262 13.34741211 27.08178711 C15.11328125 27.1953125 15.11328125 27.1953125 16.11328125 28.1953125 C16.23828125 31.1953125 16.23828125 31.1953125 16.11328125 34.1953125 C14.03463933 36.27395442 9.72140236 35.38045042 6.86328125 35.3828125 C6.09886719 35.39505859 5.33445313 35.40730469 4.546875 35.41992188 C-1.04490067 35.43440834 -4.79671769 34.9959288 -9.171875 31.2265625 C-11.70009192 26.75755036 -11.43179029 22.74076472 -11.32421875 17.6953125 C-11.33130859 16.75816406 -11.33839844 15.82101563 -11.34570312 14.85546875 C-11.29983621 9.88067289 -11.23058364 6.16074286 -7.88671875 2.1953125 C-4.63281887 0.02604591 -3.75275918 -0.04548799 0 0 Z " fill="#5C81F3" transform="translate(194.88671875,89.8046875)"/>
<path d="M0 0 C8.58 0 17.16 0 26 0 C26 1.98 26 3.96 26 6 C25 7 25 7 23.23413086 7.11352539 C22.48526611 7.10828857 21.73640137 7.10305176 20.96484375 7.09765625 C20.15595703 7.09443359 19.34707031 7.09121094 18.51367188 7.08789062 C17.66353516 7.07951172 16.81339844 7.07113281 15.9375 7.0625 C15.08349609 7.05798828 14.22949219 7.05347656 13.34960938 7.04882812 C11.23304337 7.03700373 9.11651315 7.01906769 7 7 C7 8.32 7 9.64 7 11 C8.28777344 11.06058594 9.57554687 11.12117188 10.90234375 11.18359375 C12.58074159 11.26798247 14.25912636 11.3526313 15.9375 11.4375 C16.78763672 11.47681641 17.63777344 11.51613281 18.51367188 11.55664062 C19.72700195 11.61948242 19.72700195 11.61948242 20.96484375 11.68359375 C22.08814087 11.73858032 22.08814087 11.73858032 23.23413086 11.79467773 C25 12 25 12 26 13 C26.04092937 15.33297433 26.04241723 17.66705225 26 20 C22.77630173 21.61184913 19.28811289 21.22621437 15.75 21.25 C14.99847656 21.270625 14.24695313 21.29125 13.47265625 21.3125 C8.59531519 21.34654776 5.16951723 20.80494796 1 18 C-1.39997695 14.82295315 -1.24007738 11.765726 -1.1875 7.875 C-1.18105469 6.82054687 -1.17460937 5.76609375 -1.16796875 4.6796875 C-1 2 -1 2 0 0 Z " fill="#3DB8FF" transform="translate(224,56)"/>
<path d="M0 0 C2.75 -0.3125 2.75 -0.3125 6 0 C10.03916914 3.79437101 12.41633368 9.13974246 15 14 C18.02563728 10.41405952 20.52101319 6.6712724 22.94921875 2.671875 C24 1 24 1 25 0 C26.99958364 -0.04080783 29.00045254 -0.04254356 31 0 C30.40837403 6.06416618 27.80228292 10.36866693 24.4375 15.28125 C20.75041688 20.88278012 19.3036088 25.12032979 19.10546875 31.84765625 C19 34 19 34 18 35 C15 35.125 15 35.125 12 35 C10.30317963 33.30317963 10.87516144 30.94645701 10.8125 28.625 C10.19845508 20.30568173 6.36557982 14.2855996 1.625 7.625 C-0.1426065 4.76963565 -0.38738831 3.29280064 0 0 Z " fill="#63EB82" transform="translate(387,42)"/>
<path d="M0 0 C9.9 0 19.8 0 30 0 C30 2.31 30 4.62 30 7 C26.37 7 22.74 7 19 7 C19.00785522 8.21901001 19.00785522 8.21901001 19.01586914 9.46264648 C19.03656994 13.12092322 19.04963803 16.77918767 19.0625 20.4375 C19.07087891 21.71689453 19.07925781 22.99628906 19.08789062 24.31445312 C19.09272461 26.13686523 19.09272461 26.13686523 19.09765625 27.99609375 C19.10551147 29.68496704 19.10551147 29.68496704 19.11352539 31.40795898 C19 34 19 34 18 35 C15 35.125 15 35.125 12 35 C11 34 11 34 10.88647461 31.40795898 C10.89171143 30.28204346 10.89694824 29.15612793 10.90234375 27.99609375 C10.90556641 26.78115234 10.90878906 25.56621094 10.91210938 24.31445312 C10.92048828 23.03505859 10.92886719 21.75566406 10.9375 20.4375 C10.94201172 19.15423828 10.94652344 17.87097656 10.95117188 16.54882812 C10.96300455 13.36583978 10.97948932 10.18294238 11 7 C7.37 7 3.74 7 0 7 C0 4.69 0 2.38 0 0 Z " fill="#2CB2FF" transform="translate(296,42)"/>
<path d="M0 0 C8.25 0 16.5 0 25 0 C25 2.31 25 4.62 25 7 C18.73 7 12.46 7 6 7 C6.33 8.32 6.66 9.64 7 11 C8.20398438 11.06058594 9.40796875 11.12117188 10.6484375 11.18359375 C12.22397077 11.26799732 13.79949096 11.35264541 15.375 11.4375 C16.1690625 11.47681641 16.963125 11.51613281 17.78125 11.55664062 C23.7734375 11.88671875 23.7734375 11.88671875 26 13 C26.125 15.875 26.125 15.875 26 19 C24 21 24 21 22.00048828 21.18286133 C19.37408856 21.07388975 16.74967757 20.9579064 14.125 20.8125 C13.21363281 20.78091797 12.30226563 20.74933594 11.36328125 20.71679688 C10.48285156 20.67232422 9.60242188 20.62785156 8.6953125 20.58203125 C7.89109863 20.54311768 7.08688477 20.5042041 6.25830078 20.46411133 C3.50854393 19.89899914 2.0649082 18.87543806 0 17 C-1.67295311 12.39937895 -1.29167607 6.84697006 -1 2 C-0.67 1.34 -0.34 0.68 0 0 Z " fill="#46BBFF" transform="translate(296,104)"/>
<path d="M0 0 C1.30066406 -0.00128906 2.60132813 -0.00257812 3.94140625 -0.00390625 C4.96258545 -0.00076416 4.96258545 -0.00076416 6.00439453 0.00244141 C8.08503515 0.0077901 10.16545989 0.0024957 12.24609375 -0.00390625 C14.19708984 -0.00197266 14.19708984 -0.00197266 16.1875 0 C17.39083984 0.00112793 18.59417969 0.00225586 19.83398438 0.00341797 C22.59375 0.1328125 22.59375 0.1328125 23.59375 1.1328125 C23.71875 3.6328125 23.71875 3.6328125 23.59375 6.1328125 C22.59375 7.1328125 22.59375 7.1328125 20.08984375 7.23046875 C18.57583984 7.21306641 18.57583984 7.21306641 17.03125 7.1953125 C16.01933594 7.18628906 15.00742187 7.17726563 13.96484375 7.16796875 C12.79115234 7.15056641 12.79115234 7.15056641 11.59375 7.1328125 C11.60160522 8.35182251 11.60160522 8.35182251 11.60961914 9.59545898 C11.63031994 13.25373572 11.64338803 16.91200017 11.65625 20.5703125 C11.66462891 21.84970703 11.67300781 23.12910156 11.68164062 24.44726562 C11.68647461 26.26967773 11.68647461 26.26967773 11.69140625 28.12890625 C11.69926147 29.81777954 11.69926147 29.81777954 11.70727539 31.54077148 C11.59375 34.1328125 11.59375 34.1328125 10.59375 35.1328125 C8.09375 35.2578125 8.09375 35.2578125 5.59375 35.1328125 C4.59375 34.1328125 4.59375 34.1328125 4.48022461 31.54077148 C4.48546143 30.41485596 4.49069824 29.28894043 4.49609375 28.12890625 C4.49931641 26.91396484 4.50253906 25.69902344 4.50585938 24.44726562 C4.51423828 23.16787109 4.52261719 21.88847656 4.53125 20.5703125 C4.53576172 19.28705078 4.54027344 18.00378906 4.54492188 16.68164062 C4.55675455 13.49865228 4.57323932 10.31575488 4.59375 7.1328125 C3.81128906 7.14441406 3.02882813 7.15601563 2.22265625 7.16796875 C1.21074219 7.17699219 0.19882812 7.18601562 -0.84375 7.1953125 C-1.85308594 7.20691406 -2.86242187 7.21851563 -3.90234375 7.23046875 C-6.40625 7.1328125 -6.40625 7.1328125 -7.40625 6.1328125 C-7.53125 3.6328125 -7.53125 3.6328125 -7.40625 1.1328125 C-5.54910943 -0.72432807 -2.48117951 0.00232569 0 0 Z " fill="#60DABC" transform="translate(355.40625,41.8671875)"/>
<path d="M0 0 C2.54152079 2.54152079 2.26060808 4.19760983 2.2734375 7.66796875 C2.26570313 8.39628906 2.25796875 9.12460937 2.25 9.875 C2.26160156 10.95587891 2.26160156 10.95587891 2.2734375 12.05859375 C2.25957491 15.82228566 2.23119283 18.87318751 0 22 C-6.86375343 25.43187671 -15.32609038 23 -23 23 C-22.67 52.04 -22.34 81.08 -22 111 C-46.80625 112.18125 -46.80625 112.18125 -56.3125 112.1875 C-57.8584082 112.20586914 -57.8584082 112.20586914 -59.43554688 112.22460938 C-65.32064453 112.23590515 -70.36097307 111.70450874 -76 110 C-75.67 109.01 -75.34 108.02 -75 107 C-74.01 107.66 -73.02 108.32 -72 109 C-69.33815788 109.35171951 -69.33815788 109.35171951 -66.34375 109.37890625 C-65.23902344 109.41306641 -64.13429688 109.44722656 -62.99609375 109.48242188 C-61.84238281 109.50884766 -60.68867187 109.53527344 -59.5 109.5625 C-57.21864425 109.62240152 -54.93738245 109.68603125 -52.65625 109.75390625 C-51.13741211 109.78979858 -51.13741211 109.78979858 -49.58789062 109.82641602 C-47 110 -47 110 -44 111 C-44 95.49 -44 79.98 -44 64 C-43.67 64 -43.34 64 -43 64 C-41.20723622 74.30839174 -40.80717236 84.41951059 -40.8125 94.875 C-40.81185547 96.12958008 -40.81121094 97.38416016 -40.81054688 98.67675781 C-40.86510063 107.73020126 -40.86510063 107.73020126 -42 110 C-36.39 110 -30.78 110 -25 110 C-25.0103125 107.25300781 -25.020625 104.50601563 -25.03125 101.67578125 C-25.05087052 86.61534934 -24.77514238 71.55742416 -24.53643799 56.49938965 C-24.47492588 52.59661661 -24.41528743 48.69381492 -24.35546875 44.79101562 C-24.23876322 37.19398199 -24.12005774 29.59698148 -24 22 C-23.37432129 21.98018066 -22.74864258 21.96036133 -22.10400391 21.93994141 C-19.27723481 21.84485774 -16.45122185 21.73511254 -13.625 21.625 C-12.64015625 21.5940625 -11.6553125 21.563125 -10.640625 21.53125 C-9.22910156 21.47324219 -9.22910156 21.47324219 -7.7890625 21.4140625 C-6.48509521 21.36693115 -6.48509521 21.36693115 -5.15478516 21.31884766 C-2.79038206 21.18770567 -2.79038206 21.18770567 -1 19 C-0.63105418 16.96939341 -0.63105418 16.96939341 -0.5859375 14.6484375 C-0.54726562 13.79765625 -0.50859375 12.946875 -0.46875 12.0703125 C-0.4378125 11.18085938 -0.406875 10.29140625 -0.375 9.375 C-0.33632812 8.4778125 -0.29765625 7.580625 -0.2578125 6.65625 C-0.16340643 4.4377073 -0.07783252 2.21917597 0 0 Z " fill="#3DA3F7" transform="translate(120,10)"/>
<path d="M0 0 C1.134375 0.020625 2.26875 0.04125 3.4375 0.0625 C3.4621519 4.88630802 3.48033693 9.71007967 3.49243164 14.53393555 C3.49747174 16.17619464 3.50430378 17.81844923 3.51293945 19.46069336 C3.52501926 21.81625479 3.53073139 24.17175709 3.53515625 26.52734375 C3.54031754 27.26589096 3.54547882 28.00443817 3.55079651 28.7653656 C3.5509925 30.53148088 3.49944719 32.29747146 3.4375 34.0625 C2.4375 35.0625 2.4375 35.0625 -0.625 35.125 C-1.594375 35.104375 -2.56375 35.08375 -3.5625 35.0625 C-4.70920116 31.40660716 -4.69181293 27.95931759 -4.6953125 24.14453125 C-4.69626923 23.48668137 -4.69722595 22.82883148 -4.69821167 22.15104675 C-4.69888993 20.76679386 -4.69706041 19.38253773 -4.69287109 17.99829102 C-4.687492 15.87183586 -4.69284112 13.74558946 -4.69921875 11.61914062 C-4.69855841 10.27343703 -4.69727816 8.92773357 -4.6953125 7.58203125 C-4.69418457 6.35589111 -4.69305664 5.12975098 -4.69189453 3.86645508 C-4.4989553 -0.31450155 -4.31725892 0.07574138 0 0 Z " fill="#57C1FF" transform="translate(337.5625,41.9375)"/>
<path d="M0 0 C0.64925446 -0.00350464 1.29850891 -0.00700928 1.96743774 -0.01062012 C4.10657544 -0.01939956 6.24538061 -0.01360256 8.38452148 -0.00683594 C9.87377486 -0.00818352 11.3630278 -0.01012483 12.85227966 -0.01263428 C15.97008461 -0.01558026 19.08777481 -0.01130425 22.20556641 -0.00195312 C26.202745 0.00945109 30.19965529 0.00287261 34.19682407 -0.00909805 C37.27058436 -0.01632243 40.34428094 -0.01402625 43.41804314 -0.00884247 C44.89204884 -0.00750808 46.36606032 -0.00914632 47.84005928 -0.01380157 C49.8987373 -0.01887747 51.95697947 -0.01114253 54.015625 0 C55.18714615 0.00159119 56.3586673 0.00318237 57.56568909 0.00482178 C60.44311523 0.25878906 60.44311523 0.25878906 63.44311523 2.25878906 C63.83129883 4.27416992 63.83129883 4.27416992 63.84155273 6.72363281 C63.84541992 7.60599609 63.84928711 8.48835937 63.85327148 9.39746094 C63.84166992 10.32107422 63.83006836 11.2446875 63.81811523 12.19628906 C63.8297168 13.11603516 63.84131836 14.03578125 63.85327148 14.98339844 C63.8494043 15.86705078 63.84553711 16.75070313 63.84155273 17.66113281 C63.83816895 18.4705835 63.83478516 19.28003418 63.83129883 20.11401367 C63.44311523 22.25878906 63.44311523 22.25878906 62.22363281 24.02783203 C59.87301788 25.65292465 58.39886404 25.60343904 55.55639648 25.55175781 C54.61860352 25.54208984 53.68081055 25.53242187 52.71459961 25.52246094 C51.24990234 25.48475586 51.24990234 25.48475586 49.75561523 25.44628906 C48.76754883 25.43275391 47.77948242 25.41921875 46.76147461 25.40527344 C44.32147293 25.36991109 41.88256805 25.32055939 39.44311523 25.25878906 C39.44311523 24.92878906 39.44311523 24.59878906 39.44311523 24.25878906 C40.04373779 24.23373291 40.64436035 24.20867676 41.26318359 24.18286133 C43.96922961 24.06723626 46.67489807 23.9443597 49.38061523 23.82128906 C50.32614258 23.78197266 51.27166992 23.74265625 52.24584961 23.70214844 C53.1449707 23.66025391 54.0440918 23.61835938 54.97045898 23.57519531 C56.2194397 23.52020874 56.2194397 23.52020874 57.49365234 23.46411133 C59.44650381 23.46511803 59.44650381 23.46511803 60.44311523 22.25878906 C60.44311523 15.98878906 60.44311523 9.71878906 60.44311523 3.25878906 C37.01311523 2.92878906 13.58311523 2.59878906 -10.55688477 2.25878906 C-6.3805092 0.17060128 -4.55843171 0.00618716 0 0 Z " fill="#72FA5B" transform="translate(56.556884765625,6.7412109375)"/>
<path d="M0 0 C1.25683594 0.00322266 2.51367188 0.00644531 3.80859375 0.00976562 C5.12730469 0.01814453 6.44601563 0.02652344 7.8046875 0.03515625 C9.14452961 0.04017136 10.4843735 0.04473424 11.82421875 0.04882812 C15.10941956 0.06064539 18.39453147 0.07712008 21.6796875 0.09765625 C21.6796875 0.42765625 21.6796875 0.75765625 21.6796875 1.09765625 C20.959021 1.11223877 20.23835449 1.12682129 19.49584961 1.1418457 C16.20244663 1.21672584 12.91001314 1.31325466 9.6171875 1.41015625 C8.48345703 1.43271484 7.34972656 1.45527344 6.18164062 1.47851562 C0.00288287 1.67666821 -4.92709543 1.94849621 -10.3203125 5.09765625 C-13.53725649 9.92307223 -13.44426468 14.29581363 -13.43383789 19.99926758 C-13.43405693 21.00985733 -13.43405693 21.00985733 -13.4342804 22.04086304 C-13.43358722 24.25383799 -13.42582286 26.46672736 -13.41796875 28.6796875 C-13.41610245 30.2195379 -13.41467955 31.7593889 -13.41368103 33.29924011 C-13.40987252 37.34176284 -13.40005652 41.38424934 -13.38897705 45.42675781 C-13.37872705 49.5559846 -13.37417573 53.68521727 -13.36914062 57.81445312 C-13.3584327 65.90887075 -13.34137636 74.00325898 -13.3203125 82.09765625 C-16.16932851 77.82413224 -16.45102886 74.9190844 -16.48144531 69.88549805 C-16.49105286 68.60374191 -16.5006604 67.32198578 -16.51055908 66.00138855 C-16.5154075 64.59988585 -16.51968622 63.19838107 -16.5234375 61.796875 C-16.52919186 60.35822041 -16.53494956 58.91956582 -16.54071045 57.48091125 C-16.55121289 54.46391442 -16.5570603 51.44694418 -16.56054688 48.42993164 C-16.56602593 44.57308308 -16.59004418 40.71658856 -16.61851883 36.85985088 C-16.63718867 33.88720185 -16.64235314 30.91463729 -16.64388275 27.94193459 C-16.64690071 26.52062866 -16.65490023 25.09932392 -16.66806793 23.67807579 C-16.68521525 21.68478819 -16.68139087 19.69135402 -16.67675781 17.69799805 C-16.68040344 16.56565231 -16.68404907 15.43330658 -16.68780518 14.26664734 C-16.1151572 9.32854527 -14.43242346 6.10126858 -10.7578125 2.78515625 C-6.85612508 0.08398804 -4.74849828 -0.02138963 0 0 Z " fill="#F4FBFB" transform="translate(54.3203125,31.90234375)"/>
<path d="M0 0 C1.12019531 -0.00128906 2.24039063 -0.00257812 3.39453125 -0.00390625 C4.57402344 -0.00003906 5.75351563 0.00382812 6.96875 0.0078125 C8.73798828 0.00201172 8.73798828 0.00201172 10.54296875 -0.00390625 C12.22326172 -0.00197266 12.22326172 -0.00197266 13.9375 0 C14.97326172 0.00112793 16.00902344 0.00225586 17.07617188 0.00341797 C19.46875 0.1328125 19.46875 0.1328125 20.46875 1.1328125 C20.59375 3.6328125 20.59375 3.6328125 20.46875 6.1328125 C19.46875 7.1328125 19.46875 7.1328125 16.96850586 7.24633789 C15.88448486 7.24110107 14.80046387 7.23586426 13.68359375 7.23046875 C12.51376953 7.22724609 11.34394531 7.22402344 10.13867188 7.22070312 C8.29112305 7.20813477 8.29112305 7.20813477 6.40625 7.1953125 C4.55290039 7.18854492 4.55290039 7.18854492 2.66210938 7.18164062 C-0.40239117 7.16980858 -3.46679721 7.15332423 -6.53125 7.1328125 C-6.57379356 5.13326504 -6.57205783 3.13239614 -6.53125 1.1328125 C-4.78579395 -0.61264355 -2.37000783 0.0025809 0 0 Z " fill="#21AEFF" transform="translate(229.53125,41.8671875)"/>
<path d="M0 0 C8.58 0 17.16 0 26 0 C27 5 27 5 26 7 C21.85418113 7.02886751 17.70838784 7.04675327 13.5625 7.0625 C11.78649414 7.07506836 11.78649414 7.07506836 9.97460938 7.08789062 C8.84990234 7.09111328 7.72519531 7.09433594 6.56640625 7.09765625 C5.00321655 7.10551147 5.00321655 7.10551147 3.40844727 7.11352539 C1 7 1 7 0 6 C0 4.02 0 2.04 0 0 Z " fill="#20AEFF" transform="translate(295,90)"/>
<path d="M0 0 C2.54152079 2.54152079 2.26060808 4.19760983 2.2734375 7.66796875 C2.26570313 8.39628906 2.25796875 9.12460937 2.25 9.875 C2.25773437 10.59558594 2.26546875 11.31617188 2.2734375 12.05859375 C2.25957491 15.82228566 2.23119283 18.87318751 0 22 C-6.86375343 25.43187671 -15.32609038 23 -23 23 C-23 51.71 -23 80.42 -23 110 C-23.33 110 -23.66 110 -24 110 C-24 80.96 -24 51.92 -24 22 C-13.605 21.505 -13.605 21.505 -3 21 C-0.6031335 18.6031335 -0.71718867 17.92971686 -0.5859375 14.6484375 C-0.54726562 13.79765625 -0.50859375 12.946875 -0.46875 12.0703125 C-0.4378125 11.18085938 -0.406875 10.29140625 -0.375 9.375 C-0.33632812 8.4778125 -0.29765625 7.580625 -0.2578125 6.65625 C-0.16340643 4.4377073 -0.07783252 2.21917597 0 0 Z " fill="#F3FCF7" transform="translate(120,10)"/>
<path d="M0 0 C0.33 0 0.66 0 1 0 C1.01030746 0.87616974 1.02061493 1.75233948 1.03123474 2.65505981 C1.12932918 10.92372794 1.23186033 19.1923267 1.33933926 27.46087837 C1.39443581 31.71152365 1.44783404 35.96217596 1.49731445 40.21289062 C1.5451544 44.31725696 1.59750328 48.42154356 1.65294075 52.52581406 C1.67327567 54.08942548 1.6920029 55.65305868 1.70907402 57.21670914 C1.73331542 59.41164239 1.76334129 61.60642766 1.79467773 63.80126953 C1.81022202 65.04925323 1.8257663 66.29723694 1.84178162 67.58303833 C1.93024609 70.95667262 1.93024609 70.95667262 2.51283264 74.07492065 C3 77 3 77 3 83 C6.96 83 10.92 83 15 83 C14.67 83.99 14.34 84.98 14 86 C9.71 86 5.42 86 1 86 C-0.56998834 82.86002332 -0.12944545 79.50823639 -0.11352539 76.06201172 C-0.11367142 75.24241974 -0.11381744 74.42282776 -0.1139679 73.57839966 C-0.11326974 70.8621356 -0.10548188 68.14593962 -0.09765625 65.4296875 C-0.09579173 63.54924558 -0.09436798 61.66880317 -0.09336853 59.7883606 C-0.08954607 54.83338078 -0.07971808 49.87843017 -0.06866455 44.92346191 C-0.05844461 39.86955155 -0.05386966 34.81563647 -0.04882812 29.76171875 C-0.03809559 19.84113299 -0.0210224 9.92056892 0 0 Z " fill="#65BDFD" transform="translate(153,39)"/>
<path d="M0 0 C0.99 0 1.98 0 3 0 C3.86214505 8.13069105 4.09687474 16.08874357 3.75 24.25 C3.72365479 25.08378174 3.69730957 25.91756348 3.67016602 26.77661133 C3.546875 29.140625 3.546875 29.140625 3 33 C-0.4352048 35.29013653 -1.985331 35.17842973 -6 35 C-6.495 33.515 -6.495 33.515 -7 32 C-4.69 32 -2.38 32 0 32 C0 21.44 0 10.88 0 0 Z " fill="#82D1FF" transform="translate(285,42)"/>
<path d="M0 0 C2.35779354 3.53669031 2.26931688 5.12556694 2.25 9.3125 C2.25773437 10.97732422 2.25773437 10.97732422 2.265625 12.67578125 C1.99107405 16.11170565 1.33150323 18.82595884 0 22 C-2.91848421 23.4592421 -5.48188379 23.12733084 -8.74121094 23.12939453 C-9.43412231 23.13114685 -10.12703369 23.13289917 -10.84094238 23.13470459 C-13.13877852 23.13911655 -15.43653804 23.13618614 -17.734375 23.1328125 C-19.3314007 23.13348603 -20.92842631 23.13445648 -22.52545166 23.13571167 C-25.87798027 23.137188 -29.23048229 23.13503728 -32.58300781 23.13037109 C-36.871338 23.12469226 -41.15960535 23.12794146 -45.4479332 23.13394356 C-48.74912993 23.13756665 -52.05031191 23.13640223 -55.35150909 23.13381577 C-56.93188738 23.13315037 -58.51226703 23.13396133 -60.09264374 23.13629532 C-62.30886853 23.13884848 -64.52499352 23.13494305 -66.74121094 23.12939453 C-68.00092712 23.12859894 -69.26064331 23.12780334 -70.55853271 23.12698364 C-73.79613449 23.00752225 -76.82273537 22.61380101 -80 22 C-80 21.67 -80 21.34 -80 21 C-79.03977936 21.00444122 -78.07955872 21.00888245 -77.09024048 21.01345825 C-68.05516568 21.0539455 -59.0201092 21.08395604 -49.98496437 21.10362434 C-45.33954726 21.11407582 -40.69420319 21.12825979 -36.04882812 21.15087891 C-31.56846775 21.1725588 -27.08817778 21.18455834 -22.60776901 21.18975449 C-20.89568345 21.19345899 -19.18360188 21.20069266 -17.47154617 21.21146011 C-15.07941514 21.22591068 -12.68757758 21.22798067 -10.29541016 21.22705078 C-9.22618568 21.23783661 -9.22618568 21.23783661 -8.13536072 21.24884033 C-4.12073876 21.34389027 -4.12073876 21.34389027 -1 19 C-0.63105418 16.96939341 -0.63105418 16.96939341 -0.5859375 14.6484375 C-0.54726562 13.79765625 -0.50859375 12.946875 -0.46875 12.0703125 C-0.4378125 11.18085938 -0.406875 10.29140625 -0.375 9.375 C-0.33632812 8.4778125 -0.29765625 7.580625 -0.2578125 6.65625 C-0.16340643 4.4377073 -0.07783252 2.21917597 0 0 Z " fill="#E7F1FD" transform="translate(120,123)"/>
<path d="M0 0 C3 2 3 2 3.67578125 4.1328125 C4.08129554 7.7189268 4.18413162 11.27083809 4.1875 14.875 C4.19974609 15.55691406 4.21199219 16.23882812 4.22460938 16.94140625 C4.23788025 21.58621202 3.92845486 25.6992815 2 30 C-3.33165649 33.38289144 -8.25981925 33.38164146 -14.4375 33.1875 C-15.67790039 33.16719727 -15.67790039 33.16719727 -16.94335938 33.14648438 C-18.9625264 33.11146992 -20.98135318 33.05767562 -23 33 C-23.33 32.34 -23.66 31.68 -24 31 C-23.38479492 30.9906543 -22.76958984 30.98130859 -22.13574219 30.97167969 C-19.33968914 30.91788915 -16.5452938 30.83426181 -13.75 30.75 C-12.78191406 30.73582031 -11.81382812 30.72164062 -10.81640625 30.70703125 C-9.41455078 30.65869141 -9.41455078 30.65869141 -7.984375 30.609375 C-7.12553711 30.58842773 -6.26669922 30.56748047 -5.38183594 30.54589844 C-2.16221799 29.80798682 -0.96508569 28.62859932 1 26 C1.56230568 23.45044059 1.56230568 23.45044059 1.42578125 20.68359375 C1.41740234 19.67232422 1.40902344 18.66105469 1.40039062 17.61914062 C1.37138672 16.56919922 1.34238281 15.51925781 1.3125 14.4375 C1.30283203 13.38369141 1.29316406 12.32988281 1.28320312 11.24414062 C1.24829086 5.52896283 1.24829086 5.52896283 0 0 Z " fill="#C1E8FF" transform="translate(211,44)"/>
<path d="M0 0 C0.66 0.33 1.32 0.66 2 1 C1.67 2.98 1.34 4.96 1 7 C-3.14581887 7.02886751 -7.29161216 7.04675327 -11.4375 7.0625 C-13.21350586 7.07506836 -13.21350586 7.07506836 -15.02539062 7.08789062 C-16.15009766 7.09111328 -17.27480469 7.09433594 -18.43359375 7.09765625 C-19.99678345 7.10551147 -19.99678345 7.10551147 -21.59155273 7.11352539 C-24 7 -24 7 -25 6 C-25.04063832 4.33382885 -25.042721 2.66611905 -25 1 C-24.67 1.99 -24.34 2.98 -24 4 C-16.41 4 -8.82 4 -1 4 C-0.67 2.68 -0.34 1.36 0 0 Z " fill="#7BCFFF" transform="translate(320,90)"/>
<path d="M0 0 C0.66 0.33 1.32 0.66 2 1 C2.042721 2.66611905 2.04063832 4.33382885 2 6 C1 7 1 7 -1.50024414 7.11352539 C-2.58426514 7.10828857 -3.66828613 7.10305176 -4.78515625 7.09765625 C-5.95498047 7.09443359 -7.12480469 7.09121094 -8.33007812 7.08789062 C-10.17762695 7.07532227 -10.17762695 7.07532227 -12.0625 7.0625 C-13.91584961 7.05573242 -13.91584961 7.05573242 -15.80664062 7.04882812 C-18.87114117 7.03699608 -21.93554721 7.02051173 -25 7 C-25 5.02 -25 3.04 -25 1 C-24.67 1.99 -24.34 2.98 -24 4 C-16.08 4 -8.16 4 0 4 C0 2.68 0 1.36 0 0 Z " fill="#85D2FF" transform="translate(248,42)"/>
<path d="M0 0 C0.33 0 0.66 0 1 0 C1 2.31 1 4.62 1 7 C-2.63 7 -6.26 7 -10 7 C-9.99476318 7.81267334 -9.98952637 8.62534668 -9.98413086 9.46264648 C-9.96343006 13.12092322 -9.95036197 16.77918767 -9.9375 20.4375 C-9.92912109 21.71689453 -9.92074219 22.99628906 -9.91210938 24.31445312 C-9.90888672 25.52939453 -9.90566406 26.74433594 -9.90234375 27.99609375 C-9.89710693 29.12200928 -9.89187012 30.2479248 -9.88647461 31.40795898 C-10 34 -10 34 -11 35 C-12.99958364 35.04080783 -15.00045254 35.04254356 -17 35 C-17.33 34.34 -17.66 33.68 -18 33 C-16.02 33 -14.04 33 -12 33 C-12 24.09 -12 15.18 -12 6 C-8.04 6 -4.08 6 0 6 C0 4.02 0 2.04 0 0 Z " fill="#FEFEFF" transform="translate(325,42)"/>
<path d="M0 0 C2.14810829 1.72091146 2.93268973 2.61969699 3.41992188 5.37255859 C3.47272396 8.37435713 3.50737673 11.3726702 3.5 14.375 C3.52835938 15.4165625 3.55671875 16.458125 3.5859375 17.53125 C3.60550609 25.18256679 3.60550609 25.18256679 0.65625 29.1640625 C-3.59627844 32.1033101 -6.8681675 32.16090329 -11.9375 32.1875 C-13.16339844 32.20167969 -14.38929688 32.21585938 -15.65234375 32.23046875 C-18.84710673 32.01052591 -20.27933041 31.4973883 -23 30 C-22.41508789 30.00112793 -21.83017578 30.00225586 -21.22753906 30.00341797 C-18.56719654 29.99128233 -15.90970755 29.93361614 -13.25 29.875 C-12.32960937 29.87757812 -11.40921875 29.88015625 -10.4609375 29.8828125 C-4.85286374 29.73123922 -4.85286374 29.73123922 -0.37890625 26.546875 C1.39397246 21.98660909 1.48009951 18.21676349 1.3125 13.375 C1.30283203 12.529375 1.29316406 11.68375 1.28320312 10.8125 C1.21469046 7.03536712 1.02474113 3.65234859 0 0 Z " fill="#E1F4FF" transform="translate(247,93)"/>
<path d="M0 0 C1.09814453 3.74902344 1.09814453 3.74902344 0.21484375 6.0078125 C-0.20667969 6.70648438 -0.62820313 7.40515625 -1.0625 8.125 C-1.52269531 8.91390625 -1.98289062 9.7028125 -2.45703125 10.515625 C-3.48522921 12.17115386 -4.54550277 13.80718787 -5.63671875 15.421875 C-9.29122726 20.97885162 -10.69789201 25.17128593 -10.89453125 31.84765625 C-11 34 -11 34 -12 35 C-13.99958364 35.04080783 -16.00045254 35.04254356 -18 35 C-18 34.67 -18 34.34 -18 34 C-15.525 33.505 -15.525 33.505 -13 33 C-12.99814697 32.26426758 -12.99629395 31.52853516 -12.99438477 30.77050781 C-12.67727168 22.34723335 -10.36704633 16.82714946 -5.9375 9.75 C-5.36966797 8.80253906 -4.80183594 7.85507812 -4.21679688 6.87890625 C-2.83087697 4.57292188 -1.42576514 2.28148071 0 0 Z " fill="#F5FEF6" transform="translate(417,42)"/>
<path d="M0 0 C3 3 3 3 3.2487793 5.36010742 C3.19117432 6.26607666 3.13356934 7.1720459 3.07421875 8.10546875 C3.01943359 9.08837891 2.96464844 10.07128906 2.90820312 11.08398438 C2.83537109 12.10814453 2.76253906 13.13230469 2.6875 14.1875 C2.62626953 15.22326172 2.56503906 16.25902344 2.50195312 17.32617188 C2.34864013 19.88531957 2.1807893 22.44267045 2 25 C-0.31 25.33 -2.62 25.66 -5 26 C-3.68 25.34 -2.36 24.68 -1 24 C-0.67 16.08 -0.34 8.16 0 0 Z " fill="#FBFDFF" transform="translate(263,51)"/>
<path d="M0 0 C1.0625 1.8125 1.0625 1.8125 2 4 C1.67 4.99 1.34 5.98 1 7 C-4.94 7.33 -10.88 7.66 -17 8 C-18.25433458 11.76300374 -18.10695422 15.27210909 -18.0625 19.1875 C-18.05798828 19.93708984 -18.05347656 20.68667969 -18.04882812 21.45898438 C-18.03706354 23.30602383 -18.01912865 25.15302213 -18 27 C-18.66 26.67 -19.32 26.34 -20 26 C-20.02888514 22.85418577 -20.04675923 19.70840531 -20.0625 16.5625 C-20.07087891 15.66466797 -20.07925781 14.76683594 -20.08789062 13.84179688 C-20.09111328 12.98779297 -20.09433594 12.13378906 -20.09765625 11.25390625 C-20.10551147 10.06776733 -20.10551147 10.06776733 -20.11352539 8.85766602 C-20 7 -20 7 -19 6 C-17.58429877 5.91348389 -16.164405 5.89295096 -14.74609375 5.90234375 C-13.46508789 5.90717773 -13.46508789 5.90717773 -12.15820312 5.91210938 C-11.26037109 5.92048828 -10.36253906 5.92886719 -9.4375 5.9375 C-8.53580078 5.94201172 -7.63410156 5.94652344 -6.70507812 5.95117188 C-4.46998686 5.96299775 -2.23502563 5.9794778 0 6 C0 4.02 0 2.04 0 0 Z " fill="#F7F9FE" transform="translate(210,90)"/>
<path d="M0 0 C0.66 0 1.32 0 2 0 C2.04254356 1.99954746 2.04080783 4.00041636 2 6 C1 7 1 7 -0.76586914 7.11352539 C-1.51473389 7.10828857 -2.26359863 7.10305176 -3.03515625 7.09765625 C-3.84404297 7.09443359 -4.65292969 7.09121094 -5.48632812 7.08789062 C-6.33646484 7.07951172 -7.18660156 7.07113281 -8.0625 7.0625 C-8.91650391 7.05798828 -9.77050781 7.05347656 -10.65039062 7.04882812 C-12.76695663 7.03700373 -14.88348685 7.01906769 -17 7 C-17.66 8.32 -18.32 9.64 -19 11 C-19 9.02 -19 7.04 -19 5 C-12.73 5 -6.46 5 0 5 C0 3.35 0 1.7 0 0 Z " fill="#D5EFFF" transform="translate(248,56)"/>
<path d="M0 0 C2.87648577 0.60982766 5.0840647 1.5233372 7.625 2.984375 C12.32279118 5.39428087 16.78929359 5.86580045 22 6.25 C22.87011719 6.32734375 23.74023438 6.4046875 24.63671875 6.484375 C26.75658876 6.6707372 28.87817198 6.8374406 31 7 C31 7.33 31 7.66 31 8 C27.6646408 8.06511547 24.3355879 8.04911843 21 8 C20.08863281 7.99613281 19.17726563 7.99226562 18.23828125 7.98828125 C10.95360952 7.68691823 5.7974692 5.42670099 0 1 C0 0.67 0 0.34 0 0 Z " fill="#7C84F2" transform="translate(26,137)"/>
<path d="M0 0 C2.80163026 4.2024454 2.14489712 7.00104935 2 12 C5.96 12 9.92 12 14 12 C13.67 12.99 13.34 13.98 13 15 C8.71 15 4.42 15 0 15 C0 10.05 0 5.1 0 0 Z " fill="#5388F5" transform="translate(154,110)"/>
<path d="M0 0 C0.99 0 1.98 0 3 0 C3 3.63 3 7.26 3 11 C2.34 11 1.68 11 1 11 C1 15.29 1 19.58 1 24 C0.67 24 0.34 24 0 24 C0 16.08 0 8.16 0 0 Z " fill="#63EE76" transform="translate(76,32)"/>
<path d="M0 0 C0.66 0 1.32 0 2 0 C2 1.98 2 3.96 2 6 C-3.61 6 -9.22 6 -15 6 C-15 5.34 -15 4.68 -15 4 C-10.05 4 -5.1 4 0 4 C0 2.68 0 1.36 0 0 Z " fill="#3FA0FA" transform="translate(208,90)"/>
<path d="M0 0 C0.33 0 0.66 0 1 0 C1.16729064 3.96907474 1.32788226 7.93835721 1.48217773 11.90795898 C1.53565802 13.25927079 1.59099194 14.61051052 1.64819336 15.96166992 C1.72993571 17.90002989 1.80453323 19.83868704 1.87890625 21.77734375 C1.9260376 22.94515381 1.97316895 24.11296387 2.02172852 25.31616211 C2 28 2 28 1 29 C-0.99958364 29.04080783 -3.00045254 29.04254356 -5 29 C-5.33 28.34 -5.66 27.68 -6 27 C-4.02 27 -2.04 27 0 27 C0 18.09 0 9.18 0 0 Z " fill="#D9F1FF" transform="translate(313,48)"/>
<path d="M0 0 C1.39456452 0.00667256 2.78911118 0.01863093 4.18359375 0.03515625 C4.89451172 0.03966797 5.60542969 0.04417969 6.33789062 0.04882812 C8.09899388 0.06064761 9.86005411 0.07858362 11.62109375 0.09765625 C11.62109375 0.42765625 11.62109375 0.75765625 11.62109375 1.09765625 C10.69425781 1.15824219 9.76742187 1.21882813 8.8125 1.28125 C7.01619141 1.40693359 7.01619141 1.40693359 5.18359375 1.53515625 C3.98863281 1.61636719 2.79367188 1.69757813 1.5625 1.78125 C-1.26460869 1.77421739 -1.26460869 1.77421739 -2.37890625 3.09765625 C-2.46522499 4.44033038 -2.48597098 5.78739947 -2.4765625 7.1328125 C-2.47333984 7.94169922 -2.47011719 8.75058594 -2.46679688 9.58398438 C-2.45841797 10.43412109 -2.45003906 11.28425781 -2.44140625 12.16015625 C-2.43689453 13.01416016 -2.43238281 13.86816406 -2.42773438 14.74804688 C-2.41590998 16.86461288 -2.39797394 18.9811431 -2.37890625 21.09765625 C-3.03890625 20.76765625 -3.69890625 20.43765625 -4.37890625 20.09765625 C-4.40779139 16.95184202 -4.42566548 13.80606156 -4.44140625 10.66015625 C-4.44978516 9.76232422 -4.45816406 8.86449219 -4.46679688 7.93945312 C-4.47001953 7.08544922 -4.47324219 6.23144531 -4.4765625 5.3515625 C-4.48441772 4.16542358 -4.48441772 4.16542358 -4.49243164 2.95532227 C-4.28797837 -0.39023681 -3.44017123 0.09942691 0 0 Z " fill="#F7FCFF" transform="translate(229.37890625,95.90234375)"/>
<path d="M0 0 C2.2477975 2.05233685 3.0022242 3.00667261 4 6 C6.29308963 7.14654482 7.79909656 7.19729117 10.3515625 7.31640625 C11.20234375 7.35830078 12.053125 7.40019531 12.9296875 7.44335938 C13.81914062 7.48267578 14.70859375 7.52199219 15.625 7.5625 C16.97078125 7.62727539 16.97078125 7.62727539 18.34375 7.69335938 C20.56234283 7.79956861 22.7810488 7.90161194 25 8 C25 8.33 25 8.66 25 9 C21.58378212 9.14539953 18.16836009 9.23409725 14.75 9.3125 C13.78191406 9.35439453 12.81382812 9.39628906 11.81640625 9.43945312 C4.6625678 9.56279517 4.6625678 9.56279517 1.328125 6.73046875 C0 4 0 4 0 0 Z " fill="#4552ED" transform="translate(184,114)"/>
<path d="M0 0 C2.2477975 2.05233685 3.0022242 3.00667261 4 6 C4.66 6.33 5.32 6.66 6 7 C6 7.66 6 8.32 6 9 C2.83884224 7.63016497 2.0072908 7.0109362 0 4 C0 2.68 0 1.36 0 0 Z " fill="#7063ED" transform="translate(184,114)"/>
<path d="M0 0 C0.33 0 0.66 0 1 0 C1.3125 2.3125 1.3125 2.3125 1 5 C-1.3125 6.875 -1.3125 6.875 -4 8 C-4.99 7.67 -5.98 7.34 -7 7 C-6.21625 6.5875 -5.4325 6.175 -4.625 5.75 C-1.94108344 3.9607223 -1.11901051 2.95011861 0 0 Z " fill="#F2FAFF" transform="translate(213,68)"/>
</svg>
